<svg width="431" height="124" viewBox="0 0 431 124" fill="none" xmlns="http://www.w3.org/2000/svg">
<path d="M0 77V1.48H3.84V77H0ZM7.68 77V1.48H19.2V77H7.68ZM30.72 77V1.48H34.56V77H30.72ZM38.4 77V1.48H42.24V77H38.4ZM46.08 77V1.48H57.6V77H46.08ZM22.272 115.144L26.112 111.304C28.672 108.744 30.592 106.696 31.872 105.16C33.152 103.709 34.176 102.259 34.944 100.808C35.712 99.4427 36.096 97.9493 36.096 96.328C36.096 94.4507 35.6693 93.0853 34.816 92.232C33.8773 91.3787 32.64 90.952 31.104 90.952C28.7147 90.952 26.7093 91.9333 25.088 93.896C24.7467 94.408 24.576 94.8347 24.576 95.176C24.576 95.432 24.576 95.6027 24.576 95.688L24.32 95.944L24.064 95.688L21.632 93.768C22.5707 91.8907 23.8507 90.4827 25.472 89.544C27.0933 88.52 28.9707 88.008 31.104 88.008C33.5787 88.008 35.6267 88.776 37.248 90.312C38.784 91.848 39.552 93.896 39.552 96.456C39.552 98.1627 39.1253 99.8267 38.272 101.448C37.504 103.069 36.48 104.605 35.2 106.056C33.92 107.507 32.128 109.384 29.824 111.688L26.624 114.888H37.632C38.144 114.888 38.528 114.888 38.784 114.888C38.9547 114.803 39.168 114.675 39.424 114.504H39.68V117.832H22.272V115.144ZM61.5 77V1.48H65.34V77H61.5ZM69.18 77V1.48H80.7V77H69.18ZM84.54 77V1.48H88.38V77H84.54ZM99.9 77V1.48H103.74V77H99.9ZM107.58 77V1.48H119.1V77H107.58ZM82.62 88.136H91.068C94.3107 88.136 96.7427 88.776 98.364 90.056C100.071 91.336 100.924 93.128 100.924 95.432C100.924 96.8827 100.54 98.2053 99.772 99.4C98.9187 100.595 97.8093 101.448 96.444 101.96C98.1507 102.557 99.516 103.539 100.54 104.904C101.564 106.355 102.076 107.891 102.076 109.512C102.076 112.072 101.137 114.12 99.26 115.656C97.468 117.107 94.6947 117.832 90.94 117.832H82.62V88.136ZM90.556 100.424C95.2493 100.424 97.596 98.8453 97.596 95.688C97.596 94.3227 97.0413 93.2133 95.932 92.36C94.908 91.4213 93.2867 90.952 91.068 90.952H85.82V100.424H90.556ZM91.58 114.888C96.188 114.888 98.492 113.011 98.492 109.256C98.492 105.245 95.8893 103.24 90.684 103.24H85.82V114.888H91.58ZM123 77V1.48H126.84V77H123ZM130.68 77V1.48H142.2V77H130.68ZM146.04 77V1.48H149.88V77H146.04ZM153.72 77V1.48H165.24V77H153.72ZM176.76 77V1.48H180.6V77H176.76ZM153.592 118.344C149.752 118.344 146.637 117.064 144.248 114.504L146.04 111.56L146.168 111.176L146.552 111.304C146.552 111.389 146.595 111.56 146.68 111.816C146.68 111.987 146.765 112.2 146.936 112.456C147.021 112.627 147.192 112.797 147.448 112.968C149.24 114.504 151.459 115.272 154.104 115.272C155.811 115.272 157.261 114.803 158.456 113.864C159.651 112.84 160.248 111.645 160.248 110.28C160.248 109.341 160.035 108.531 159.608 107.848C159.267 107.251 158.627 106.653 157.688 106.056C156.749 105.459 155.299 104.733 153.336 103.88C150.435 102.771 148.344 101.491 147.064 100.04C145.869 98.5893 145.272 96.968 145.272 95.176C145.272 92.9573 146.083 91.1653 147.704 89.8C149.325 88.4347 151.501 87.752 154.232 87.752C155.853 87.752 157.389 88.0933 158.84 88.776C160.205 89.4587 161.443 90.3547 162.552 91.464L160.376 94.408L160.12 94.152C160.12 94.0667 160.077 93.9387 159.992 93.768C159.992 93.512 159.907 93.2987 159.736 93.128C159.651 92.872 159.48 92.6587 159.224 92.488C158.541 91.8053 157.731 91.2933 156.792 90.952C155.939 90.696 154.915 90.568 153.72 90.568C152.184 90.568 150.989 90.9947 150.136 91.848C149.197 92.7013 148.728 93.7253 148.728 94.92C148.728 95.8587 148.899 96.6693 149.24 97.352C149.667 98.0347 150.392 98.6747 151.416 99.272C152.44 99.9547 153.976 100.68 156.024 101.448C158.84 102.643 160.803 103.837 161.912 105.032C162.936 106.312 163.448 107.891 163.448 109.768C163.448 111.219 163.107 112.584 162.424 113.864C161.656 115.144 160.547 116.211 159.096 117.064C157.56 117.917 155.725 118.344 153.592 118.344ZM184.5 77V1.48H196.02V77H184.5ZM199.86 77V1.48H203.7V77H199.86ZM207.54 77V1.48H211.38V77H207.54ZM222.9 77V1.48H234.42V77H222.9ZM238.26 77V1.48H242.1V77H238.26ZM205.748 88.136H209.588V88.52C209.417 88.6907 209.289 88.904 209.204 89.16C209.204 89.3307 209.204 89.7147 209.204 90.312V100.808H220.724V88.136H224.692V88.52C224.521 88.6907 224.393 88.904 224.308 89.16C224.308 89.3307 224.308 89.7147 224.308 90.312V117.832H220.724V103.752H209.204V117.832H205.748V88.136ZM246 77V1.48H257.52V77H246ZM261.36 77V1.48H265.2V77H261.36ZM269.04 77V1.48H280.56V77H269.04ZM284.4 77V1.48H288.24V77H284.4ZM299.76 77V1.48H303.6V77H299.76ZM276.72 118.344C273.307 118.344 270.704 117.021 268.912 114.376C267.035 111.731 266.096 107.976 266.096 103.112C266.096 98.4187 267.035 94.7067 268.912 91.976C270.789 89.3307 273.392 88.008 276.72 88.008C280.048 88.008 282.651 89.3307 284.528 91.976C286.405 94.7067 287.344 98.4187 287.344 103.112C287.344 107.976 286.405 111.731 284.528 114.376C282.736 117.021 280.133 118.344 276.72 118.344ZM276.72 115.4C279.024 115.4 280.773 114.376 281.968 112.328C283.248 110.195 283.888 107.123 283.888 103.112C283.888 99.3573 283.248 96.3707 281.968 94.152C280.688 92.0187 278.939 90.952 276.72 90.952C274.501 90.952 272.752 92.0187 271.472 94.152C270.192 96.3707 269.552 99.3573 269.552 103.112C269.552 107.123 270.149 110.195 271.344 112.328C272.624 114.376 274.416 115.4 276.72 115.4ZM307.5 77V1.48H311.34V77H307.5ZM315.18 77V1.48H326.7V77H315.18ZM330.54 77V1.48H342.06V77H330.54ZM345.9 77V1.48H349.74V77H345.9ZM361.26 77V1.48H365.1V77H361.26ZM329.132 88.136H338.604C341.761 88.136 344.108 88.9467 345.644 90.568C347.265 92.104 348.076 94.1093 348.076 96.584C348.076 98.9733 347.308 100.936 345.772 102.472C344.236 104.008 341.932 104.776 338.86 104.776H332.588V117.832H329.132V88.136ZM338.476 101.832C340.609 101.832 342.145 101.363 343.084 100.424C344.108 99.5707 344.62 98.3333 344.62 96.712C344.62 95.0907 344.108 93.8107 343.084 92.872C342.06 91.848 340.567 91.336 338.604 91.336H332.588V101.832H338.476ZM369 77V1.48H372.84V77H369ZM376.68 77V1.48H388.2V77H376.68ZM392.04 77V1.48H395.88V77H392.04ZM399.72 77V1.48H411.24V77H399.72ZM422.76 77V1.48H426.6V77H422.76ZM399.592 118.344C395.752 118.344 392.637 117.064 390.248 114.504L392.04 111.56L392.168 111.176L392.552 111.304C392.552 111.389 392.595 111.56 392.68 111.816C392.68 111.987 392.765 112.2 392.936 112.456C393.021 112.627 393.192 112.797 393.448 112.968C395.24 114.504 397.459 115.272 400.104 115.272C401.811 115.272 403.261 114.803 404.456 113.864C405.651 112.84 406.248 111.645 406.248 110.28C406.248 109.341 406.035 108.531 405.608 107.848C405.267 107.251 404.627 106.653 403.688 106.056C402.749 105.459 401.299 104.733 399.336 103.88C396.435 102.771 394.344 101.491 393.064 100.04C391.869 98.5893 391.272 96.968 391.272 95.176C391.272 92.9573 392.083 91.1653 393.704 89.8C395.325 88.4347 397.501 87.752 400.232 87.752C401.853 87.752 403.389 88.0933 404.84 88.776C406.205 89.4587 407.443 90.3547 408.552 91.464L406.376 94.408L406.12 94.152C406.12 94.0667 406.077 93.9387 405.992 93.768C405.992 93.512 405.907 93.2987 405.736 93.128C405.651 92.872 405.48 92.6587 405.224 92.488C404.541 91.8053 403.731 91.2933 402.792 90.952C401.939 90.696 400.915 90.568 399.72 90.568C398.184 90.568 396.989 90.9947 396.136 91.848C395.197 92.7013 394.728 93.7253 394.728 94.92C394.728 95.8587 394.899 96.6693 395.24 97.352C395.667 98.0347 396.392 98.6747 397.416 99.272C398.44 99.9547 399.976 100.68 402.024 101.448C404.84 102.643 406.803 103.837 407.912 105.032C408.936 106.312 409.448 107.891 409.448 109.768C409.448 111.219 409.107 112.584 408.424 113.864C407.656 115.144 406.547 116.211 405.096 117.064C403.56 117.917 401.725 118.344 399.592 118.344Z" fill="#1F01B6"/>
</svg>
